<?xml version="1.0" encoding="UTF-8"?>
<!DOCTYPE svg PUBLIC "-//W3C//DTD SVG 1.1//EN" "http://www.w3.org/Graphics/SVG/1.1/DTD/svg11.dtd">
<svg xmlns="http://www.w3.org/2000/svg"
     style="background: transparent; background-color: transparent; color-scheme: light dark;"
     version="1.1" width="262px" height="262px" viewBox="0 0 262 262">
  <defs/>
  <g>
    <g data-cell-id="0">
      <g data-cell-id="1">
        <g data-cell-id="rtcpYZbgnlMAwqHNECys-1">
          <g transform="translate(0.5,0.5)"/>
          <g data-cell-id="WKj6DpxLUBhHQ0AxX3lQ-251">
            <g transform="translate(0.5,0.5)">
              <ellipse cx="116.02" cy="61.1" rx="51.015" ry="26.095" fill="none" stroke="none"
                       transform="rotate(75,116.02,61.1)" pointer-events="all"/>
              <path
                  d="M 86.35 37.24 C 93.1 34.39 106.67 35.2 116.15 35.83 C 125.62 36.45 135.4 38.93 143.19 40.99 C 150.98 43.05 159.13 44.56 162.88 48.2 C 166.63 51.83 167.37 57.76 165.68 62.79 C 164 67.83 158.36 74.58 152.76 78.41 C 147.16 82.24 140.39 84.28 132.06 85.77 C 123.74 87.25 112.03 88.71 102.81 87.31 C 93.6 85.91 83.07 81.34 76.78 77.35 C 70.48 73.35 65.96 68.16 65.05 63.35 C 64.13 58.55 66.84 52.63 71.27 48.5 C 75.7 44.37 87.24 40.03 91.6 38.56 C 95.96 37.1 97.25 39.47 97.44 39.7 M 136.92 38.41 C 145.05 39.96 156.04 43.88 161.34 47.4 C 166.64 50.92 169.01 54.76 168.71 59.53 C 168.41 64.3 164.96 71.74 159.54 76 C 154.11 80.25 144.95 83.73 136.14 85.07 C 127.32 86.4 116.21 84.92 106.67 84.01 C 97.12 83.1 85.29 82.47 78.86 79.59 C 72.42 76.71 70.09 71.43 68.07 66.73 C 66.05 62.02 64.11 55.86 66.71 51.37 C 69.32 46.88 76.4 42.25 83.7 39.77 C 91.01 37.29 101.17 36.49 110.54 36.5 C 119.92 36.51 135.55 39.72 139.96 39.81 C 144.38 39.89 137.69 37.11 137.04 36.99"
                  fill="#ff6666" stroke="none" transform="rotate(75,116.02,61.1)" pointer-events="all"
                  style="fill: light-dark(rgb(255, 102, 102), rgb(224, 93, 93));"/>
            </g>
          </g>
          <g data-cell-id="WKj6DpxLUBhHQ0AxX3lQ-252">
            <g transform="translate(0.5,0.5)">
              <ellipse cx="154.52" cy="56.86" rx="48.74" ry="26.86" fill="none" stroke="none"
                       transform="rotate(105,154.52,56.86)" pointer-events="all"/>
              <path
                  d="M 173.15 30.29 C 181.69 31.52 190.81 35.99 195.53 39.91 C 200.25 43.83 201.23 48.59 201.46 53.79 C 201.7 59 200.95 66.59 196.94 71.12 C 192.93 75.66 185.43 78.8 177.41 81.01 C 169.39 83.22 157.85 84.64 148.83 84.37 C 139.81 84.1 129.77 82.42 123.29 79.37 C 116.82 76.33 112.83 70.94 109.98 66.12 C 107.12 61.31 104.29 54.97 106.16 50.49 C 108.03 46.01 114.57 42.51 121.2 39.27 C 127.84 36.02 133.79 30.77 145.99 31.01 C 158.2 31.25 184.83 36.76 194.42 40.72 C 204 44.68 204.03 54.47 203.49 54.76 M 140.68 28.92 C 149.33 26.98 161.44 28.51 170.37 29.79 C 179.3 31.07 188.8 32.49 194.28 36.6 C 199.77 40.71 202.73 49.45 203.26 54.45 C 203.79 59.45 200.99 62.31 197.45 66.59 C 193.92 70.87 189.06 77.56 182.06 80.16 C 175.07 82.75 164.82 82.34 155.48 82.17 C 146.15 81.99 133.64 81.17 126.04 79.1 C 118.44 77.04 113.41 74.07 109.9 69.76 C 106.39 65.44 103.35 58.82 104.98 53.24 C 106.62 47.66 113.34 40.46 119.71 36.27 C 126.09 32.08 139.19 29.14 143.21 28.1 C 147.22 27.05 144.2 28.87 143.78 30.01"
                  fill="#ff6666" stroke="none" transform="rotate(105,154.52,56.86)" pointer-events="all"
                  style="fill: light-dark(rgb(255, 102, 102), rgb(224, 93, 93));"/>
            </g>
          </g>
          <g data-cell-id="WKj6DpxLUBhHQ0AxX3lQ-253">
            <g transform="translate(0.5,0.5)">
              <ellipse cx="131" cy="158.9" rx="128" ry="99.905" fill="none" stroke="none" pointer-events="all"/>
              <path
                  d="M 69.96 71.02 C 81.27 64.57 96.11 62.75 110.3 61.31 C 124.48 59.86 141.05 60.64 155.08 62.33 C 169.12 64.02 182.39 66.03 194.51 71.47 C 206.63 76.9 217.99 85.62 227.81 94.94 C 237.63 104.26 248.56 116.28 253.43 127.42 C 258.31 138.56 257.71 150.85 257.07 161.79 C 256.43 172.72 254.66 182.63 249.58 193.03 C 244.51 203.43 235.87 215.31 226.63 224.17 C 217.38 233.03 206.65 240.9 194.12 246.19 C 181.6 251.48 165.73 254.31 151.48 255.9 C 137.24 257.48 123.06 257.82 108.68 255.71 C 94.29 253.6 78.14 248.73 65.18 243.24 C 52.21 237.74 40.23 231.55 30.88 222.74 C 21.53 213.92 13.97 201.26 9.06 190.34 C 4.16 179.42 1.06 168.52 1.46 157.2 C 1.87 145.89 6.11 133.3 11.49 122.47 C 16.87 111.64 19.7 102.02 33.74 92.23 C 47.79 82.44 81.11 68.98 95.76 63.76 C 110.4 58.53 121.07 59.53 121.61 60.89 M 40.36 89.69 C 48.42 80.58 59.94 75.33 72.06 70.16 C 84.19 64.99 98.38 59.72 113.1 58.69 C 127.81 57.66 146.15 61.55 160.37 63.97 C 174.59 66.39 185.95 67.28 198.43 73.2 C 210.9 79.12 226.48 89.97 235.22 99.49 C 243.97 109.01 247.2 119.69 250.89 130.34 C 254.58 141 258.04 152.26 257.36 163.41 C 256.68 174.57 251.89 186.96 246.82 197.26 C 241.75 207.55 236.92 216.38 226.92 225.19 C 216.92 234.01 200.65 244.28 186.82 250.14 C 172.99 256 157.8 259.36 143.94 260.36 C 130.08 261.37 118.02 259 103.66 256.16 C 89.3 253.31 70.37 249.76 57.78 243.29 C 45.19 236.82 35.91 226.75 28.11 217.35 C 20.31 207.95 15.18 197.88 10.98 186.88 C 6.79 175.89 2.83 162.83 2.94 151.38 C 3.05 139.93 5.48 128.02 11.63 118.18 C 17.78 108.33 35.27 96.76 39.85 92.3 C 44.43 87.84 37.74 90.33 39.11 91.42"
                  fill="#ff6666" stroke="none" pointer-events="all"
                  style="fill: light-dark(rgb(255, 102, 102), rgb(224, 93, 93));"/>
            </g>
          </g>
          <g data-cell-id="WKj6DpxLUBhHQ0AxX3lQ-254">
            <g transform="translate(0.5,0.5)"
               style="filter: drop-shadow(light-dark(rgba(0, 0, 0, 0.25), rgba(237, 237, 237, 0.25)) 2px 3px 2px);">
              <path
                  d="M 91 158.9 L 91 106.17 Q 91 96.17 99.47 101.48 L 182.53 153.59 Q 191 158.9 182.53 164.21 L 99.47 216.32 Q 91 221.63 91 211.63 Z"
                  fill="none" stroke="none" transform="rotate(5,141,158.9)" pointer-events="all"/>
              <path
                  d="M 91 158.9 C 91.33 139.59 96.98 125.12 91 106.17 C 88.63 100.36 93.18 96.85 99.47 101.48 C 133.23 120.26 158.06 141.62 182.53 153.59 C 186.69 158.39 188.57 161.88 182.53 164.21 C 170.08 175.32 153.15 184.27 99.47 216.32 C 89.99 221.34 94.26 215.61 91 211.63 C 84.43 194.57 92.07 179.32 91 158.9"
                  fill="#ffb570" stroke="none" transform="rotate(5,141,158.9)" pointer-events="all"
                  style="fill: light-dark(rgb(255, 181, 112), rgb(126, 63, 3));"/>
            </g>
          </g>
        </g>
      </g>
    </g>
  </g>
</svg>
